<?xml version="1.0" encoding="UTF-8" standalone="no"?>
<!DOCTYPE svg PUBLIC "-//W3C//DTD SVG 1.1//EN" "http://www.w3.org/Graphics/SVG/1.1/DTD/svg11.dtd">
<svg width="100%" height="100%" viewBox="0 0 94 94" version="1.1" xmlns="http://www.w3.org/2000/svg" xmlns:xlink="http://www.w3.org/1999/xlink" xml:space="preserve" xmlns:serif="http://www.serif.com/" style="fill-rule:evenodd;clip-rule:evenodd;stroke-linejoin:round;stroke-miterlimit:2;">
    <g transform="matrix(1,0,0,1,-429.415,-804.232)">
        <g id="girls_home" transform="matrix(1,0,0,1,139.5,-318.362)">
            <path d="M336.915,1122.59C310.999,1122.59 289.915,1143.68 289.915,1169.59C289.915,1195.51 310.999,1216.59 336.915,1216.59C362.83,1216.59 383.914,1195.51 383.914,1169.59C383.914,1143.68 362.83,1122.59 336.915,1122.59ZM336.915,1126.59C360.625,1126.59 379.914,1145.88 379.914,1169.59C379.914,1179 376.871,1187.7 371.729,1194.79C371.694,1194.63 371.661,1194.46 371.615,1194.31C367.644,1180.65 360.311,1180.18 358.732,1179.81C358.549,1179.77 358.363,1179.73 358.177,1179.69C353.387,1175.27 356.656,1156.79 356.656,1156.79C356.656,1128.63 337.605,1131.39 337.605,1131.39C337.373,1131.38 337.142,1131.37 336.915,1131.37C336.687,1131.38 336.457,1131.38 336.224,1131.39C336.224,1131.39 317.173,1128.62 317.173,1156.79C317.173,1156.79 320.443,1175.27 315.652,1179.69C315.464,1179.73 315.279,1179.77 315.097,1179.81C313.517,1180.18 306.184,1180.65 302.214,1194.31C302.168,1194.46 302.134,1194.63 302.099,1194.79C296.957,1187.7 293.914,1179 293.914,1169.59C293.914,1145.88 313.204,1126.59 336.915,1126.59ZM322.66,1155.78C322.74,1155 323.781,1146.24 330.337,1146.85L350.391,1157.17L352.019,1155.6C352.076,1155.61 352.13,1155.63 352.182,1155.66C352.899,1155.99 353.205,1157.66 352.864,1159.57C352.604,1161.03 352.033,1162.23 351.426,1162.75C351.183,1162.95 350.936,1163.05 350.699,1163.01C350.565,1162.98 350.443,1162.92 350.335,1162.81C348.996,1166.97 346.439,1171.12 343.212,1173.61C341.329,1175.06 339.218,1175.95 336.987,1175.95C334.742,1175.95 332.619,1175.05 330.727,1173.58C327.517,1171.09 324.972,1166.96 323.641,1162.81C323.532,1162.92 323.411,1162.98 323.277,1163.01C323.002,1163.05 322.711,1162.92 322.433,1162.64C321.87,1162.07 321.354,1160.93 321.11,1159.57C320.789,1157.77 321.044,1156.18 321.676,1155.72C321.763,1155.66 321.855,1155.62 321.955,1155.6C322.183,1155.56 322.42,1155.65 322.653,1155.84L322.653,1155.84C322.654,1155.84 322.656,1155.82 322.66,1155.78ZM336.915,1185.64C331.203,1185.64 326.357,1182.46 324.633,1180.25C324.265,1179.78 324.036,1179.28 323.975,1178.77C324.062,1178.74 324.26,1178.67 324.519,1178.55C324.626,1178.5 324.744,1178.44 324.867,1178.38C325.911,1177.83 327.445,1176.69 327.446,1174.68L327.447,1174.68C329.096,1176.31 330.928,1177.6 332.886,1178.38C334.203,1178.9 335.576,1179.19 336.987,1179.19C338.399,1179.19 339.772,1178.9 341.09,1178.38C343.028,1177.61 344.846,1176.33 346.482,1174.72C346.493,1174.72 346.503,1174.73 346.515,1174.74C346.555,1177.33 349.155,1178.46 349.859,1178.72C349.857,1178.74 349.856,1178.75 349.854,1178.77C349.792,1179.28 349.563,1179.78 349.194,1180.25C347.472,1182.46 342.625,1185.64 336.915,1185.64L336.915,1185.64Z" style="fill:white;fill-rule:nonzero;"/>
        </g>
    </g>
</svg>
