<?xml version="1.0" encoding="UTF-8" standalone="no"?>
<!DOCTYPE svg PUBLIC "-//W3C//DTD SVG 1.1//EN" "http://www.w3.org/Graphics/SVG/1.1/DTD/svg11.dtd">
<svg width="100%" height="100%" viewBox="0 0 94 94" version="1.1" xmlns="http://www.w3.org/2000/svg" xmlns:xlink="http://www.w3.org/1999/xlink" xml:space="preserve" xmlns:serif="http://www.serif.com/" style="fill-rule:evenodd;clip-rule:evenodd;stroke-linejoin:round;stroke-miterlimit:2;">
    <g transform="matrix(1,0,0,1,-429.415,-910.323)">
        <g id="girls_away" transform="matrix(1,0,0,1,139.5,-330.466)">
            <path d="M336.915,1240.79C310.999,1240.79 289.915,1261.87 289.915,1287.79C289.915,1313.7 310.999,1334.79 336.915,1334.79C362.83,1334.79 383.914,1313.7 383.914,1287.79C383.914,1261.87 362.83,1240.79 336.915,1240.79ZM336.915,1244.79C360.625,1244.79 379.914,1264.08 379.914,1287.79C379.914,1297.19 376.871,1305.89 371.729,1312.98C371.694,1312.82 371.661,1312.66 371.615,1312.5C367.644,1298.85 360.311,1298.38 358.732,1298.01C358.549,1297.96 358.363,1297.92 358.177,1297.89C353.387,1293.46 356.656,1274.99 356.656,1274.99C356.656,1246.82 337.605,1249.59 337.605,1249.59C337.373,1249.58 337.142,1249.57 336.915,1249.56C336.687,1249.57 336.457,1249.58 336.224,1249.59C336.224,1249.59 317.173,1246.82 317.173,1274.99C317.173,1274.99 320.443,1293.46 315.652,1297.89C315.464,1297.92 315.279,1297.96 315.097,1298.01C313.517,1298.38 306.184,1298.85 302.214,1312.5C302.168,1312.66 302.134,1312.82 302.099,1312.98C296.957,1305.89 293.914,1297.19 293.914,1287.79C293.914,1264.08 313.204,1244.79 336.915,1244.79ZM322.66,1273.98C322.74,1273.2 323.781,1264.44 330.337,1265.05L350.391,1275.37L352.019,1273.8C352.076,1273.81 352.13,1273.83 352.182,1273.85C352.899,1274.19 353.205,1275.86 352.864,1277.76C352.604,1279.22 352.033,1280.43 351.426,1280.94C351.183,1281.15 350.936,1281.24 350.699,1281.2C350.565,1281.18 350.443,1281.11 350.335,1281.01C348.996,1285.17 346.439,1289.31 343.212,1291.81C341.329,1293.26 339.218,1294.15 336.987,1294.15C334.742,1294.15 332.619,1293.25 330.727,1291.78C327.517,1289.28 324.972,1285.15 323.641,1281.01C323.532,1281.11 323.411,1281.18 323.277,1281.2C323.002,1281.25 322.711,1281.11 322.433,1280.83C321.87,1280.27 321.354,1279.13 321.11,1277.76C320.789,1275.96 321.044,1274.37 321.676,1273.92C321.763,1273.86 321.855,1273.82 321.955,1273.8C322.183,1273.76 322.42,1273.85 322.653,1274.03L322.653,1274.04C322.654,1274.03 322.656,1274.02 322.66,1273.98ZM336.915,1303.84C331.203,1303.84 326.357,1300.65 324.633,1298.44C324.265,1297.98 324.036,1297.48 323.975,1296.96C324.062,1296.93 324.26,1296.86 324.519,1296.75C324.626,1296.7 324.744,1296.64 324.867,1296.58C325.911,1296.03 327.445,1294.88 327.446,1292.87L327.447,1292.87C329.096,1294.51 330.928,1295.8 332.886,1296.58C334.203,1297.1 335.576,1297.38 336.987,1297.38C338.399,1297.38 339.772,1297.1 341.09,1296.58C343.028,1295.81 344.846,1294.53 346.482,1292.92C346.493,1292.92 346.503,1292.93 346.515,1292.93C346.555,1295.52 349.155,1296.66 349.859,1296.92C349.857,1296.93 349.856,1296.95 349.854,1296.96C349.792,1297.48 349.563,1297.98 349.194,1298.45C347.472,1300.65 342.625,1303.84 336.915,1303.84L336.915,1303.84Z" style="fill:rgb(77,77,77);fill-rule:nonzero;"/>
        </g>
    </g>
</svg>
