<?xml version="1.0" encoding="UTF-8" standalone="no"?>
<!DOCTYPE svg PUBLIC "-//W3C//DTD SVG 1.1//EN" "http://www.w3.org/Graphics/SVG/1.1/DTD/svg11.dtd">
<svg width="100%" height="100%" viewBox="0 0 94 94" version="1.1" xmlns="http://www.w3.org/2000/svg" xmlns:xlink="http://www.w3.org/1999/xlink" xml:space="preserve" xmlns:serif="http://www.serif.com/" style="fill-rule:evenodd;clip-rule:evenodd;stroke-linejoin:round;stroke-miterlimit:2;">
    <g transform="matrix(1,0,0,1,-319.428,-798.339)">
        <g id="joanne_home" transform="matrix(1,0,0,1,161,-323.008)">
            <path d="M205.429,1121.35C179.512,1121.35 158.428,1142.43 158.428,1168.35C158.428,1194.26 179.512,1215.35 205.429,1215.35C231.344,1215.35 252.428,1194.26 252.428,1168.35C252.428,1142.43 231.344,1121.35 205.429,1121.35ZM205.429,1125.35C229.139,1125.35 248.428,1144.64 248.428,1168.35C248.428,1177.86 245.321,1186.65 240.074,1193.78C238.58,1185.24 232.398,1178.31 224.273,1175.75C228.237,1176.19 231.714,1176.88 231.714,1176.88C223.805,1172.53 224.009,1156.92 224.009,1156.92C225.392,1126.69 205.442,1128.27 205.442,1128.27L205.427,1128.32L205.412,1128.27C205.412,1128.27 185.462,1126.69 186.845,1156.92C186.845,1156.92 187.049,1172.53 179.139,1176.88C179.139,1176.88 181.267,1176.73 184.116,1176.68C177.219,1179.76 172.123,1186.12 170.786,1193.78C165.537,1186.65 162.428,1177.86 162.428,1168.35C162.428,1144.64 181.718,1125.35 205.429,1125.35ZM219.891,1151.58L219.988,1151.58L220.945,1151.75C220.933,1152.51 220.877,1153.25 220.771,1153.98C220.47,1157.99 219.452,1161.67 217.91,1164.76C215.103,1170.39 210.558,1174.05 205.429,1174.05C197.609,1174.05 191.146,1165.55 190.132,1154.53C190.132,1154.53 196.307,1153.51 199.993,1152.05C199.993,1152.05 206.675,1149.82 214.834,1143.94C214.875,1143.91 214.915,1143.89 214.956,1143.86C214.956,1143.86 215.102,1144.07 215.31,1144.42C216.018,1145.64 217.535,1149.26 214.667,1150.91L219.891,1151.58ZM195.522,1172.28C198.342,1175.1 201.752,1176.75 205.427,1176.75C209.018,1176.75 212.356,1175.18 215.138,1172.48L213.085,1176.75C213.773,1175.62 216.358,1175.31 219.393,1175.39C218.911,1178.3 215.489,1180.74 210.772,1181.81L205.428,1190.49L200.084,1181.81C196.2,1180.92 193.199,1179.11 191.989,1176.88C195.123,1177.15 197.778,1177.72 198.465,1178.85L195.522,1172.28Z" style="fill:white;fill-rule:nonzero;"/>
        </g>
    </g>
</svg>
