<?xml version="1.0" encoding="UTF-8" standalone="no"?>
<!DOCTYPE svg PUBLIC "-//W3C//DTD SVG 1.1//EN" "http://www.w3.org/Graphics/SVG/1.1/DTD/svg11.dtd">
<svg width="100%" height="100%" viewBox="0 0 94 94" version="1.1" xmlns="http://www.w3.org/2000/svg" xmlns:xlink="http://www.w3.org/1999/xlink" xml:space="preserve" xmlns:serif="http://www.serif.com/" style="fill-rule:evenodd;clip-rule:evenodd;stroke-linejoin:round;stroke-miterlimit:2;">
    <g transform="matrix(1,0,0,1,-319.428,-910.323)">
        <g id="joanne_away" transform="matrix(1,0,0,1,161,-336.37)">
            <path d="M205.429,1246.69C179.512,1246.69 158.428,1267.78 158.428,1293.69C158.428,1319.61 179.512,1340.69 205.429,1340.69C231.344,1340.69 252.428,1319.61 252.428,1293.69C252.428,1267.78 231.344,1246.69 205.429,1246.69ZM205.429,1250.69C229.139,1250.69 248.428,1269.98 248.428,1293.69C248.428,1303.2 245.321,1312 240.074,1319.12C238.58,1310.58 232.398,1303.65 224.273,1301.09C228.237,1301.54 231.714,1302.22 231.714,1302.22C223.805,1297.87 224.009,1282.27 224.009,1282.27C225.392,1252.04 205.442,1253.62 205.442,1253.62L205.427,1253.66L205.412,1253.62C205.412,1253.62 185.462,1252.04 186.845,1282.27C186.845,1282.27 187.049,1297.87 179.139,1302.22C179.139,1302.22 181.267,1302.08 184.116,1302.02C177.219,1305.11 172.123,1311.47 170.786,1319.13C165.537,1312 162.428,1303.2 162.428,1293.69C162.428,1269.98 181.718,1250.69 205.429,1250.69L205.429,1250.69ZM219.891,1276.92L219.988,1276.92L220.945,1277.1C220.933,1277.86 220.877,1278.6 220.771,1279.33C220.47,1283.33 219.452,1287.02 217.91,1290.11C215.103,1295.74 210.558,1299.39 205.429,1299.39C197.609,1299.39 191.146,1290.89 190.132,1279.88C190.132,1279.88 196.307,1278.85 199.993,1277.4C199.993,1277.4 206.675,1275.17 214.834,1269.29C214.875,1269.26 214.915,1269.23 214.956,1269.2C214.956,1269.2 215.102,1269.41 215.31,1269.77C216.018,1270.99 217.535,1274.6 214.667,1276.26L219.891,1276.92ZM195.522,1297.63C198.342,1300.45 201.752,1302.1 205.427,1302.1C209.018,1302.1 212.356,1300.52 215.138,1297.82L213.085,1302.1C213.773,1300.96 216.358,1300.66 219.393,1300.73C218.911,1303.64 215.489,1306.08 210.772,1307.15L205.428,1315.84L200.084,1307.15C196.2,1306.27 193.199,1304.46 191.989,1302.22C195.123,1302.5 197.778,1303.07 198.465,1304.2L195.522,1297.63Z" style="fill:rgb(77,77,77);fill-rule:nonzero;"/>
        </g>
    </g>
</svg>
