<?xml version="1.0" encoding="UTF-8" standalone="no"?>
<!DOCTYPE svg PUBLIC "-//W3C//DTD SVG 1.1//EN" "http://www.w3.org/Graphics/SVG/1.1/DTD/svg11.dtd">
<svg width="100%" height="100%" viewBox="0 0 95 94" version="1.1" xmlns="http://www.w3.org/2000/svg" xmlns:xlink="http://www.w3.org/1999/xlink" xml:space="preserve" xmlns:serif="http://www.serif.com/" style="fill-rule:evenodd;clip-rule:evenodd;stroke-linejoin:round;stroke-miterlimit:2;">
    <g transform="matrix(1,0,0,1,-207.371,-910.323)">
        <g id="john_away" transform="matrix(1,0,0,1,190.12,-78.2585)">
            <path id="path10-4-6" d="M64.252,988.581C38.335,988.581 17.251,1009.67 17.251,1035.58C17.251,1061.5 38.335,1082.58 64.252,1082.58C90.167,1082.58 111.251,1061.5 111.251,1035.58C111.251,1009.67 90.167,988.581 64.252,988.581ZM64.252,992.581C87.962,992.581 107.251,1011.87 107.251,1035.58C107.251,1044.91 104.256,1053.55 99.19,1060.6C98.562,1049.14 89.617,1039.91 78.274,1038.87C78.181,1043.08 71.94,1046.48 64.251,1046.48C56.562,1046.48 50.32,1043.08 50.228,1038.87C38.887,1039.91 29.94,1049.14 29.312,1060.6C24.246,1053.55 21.251,1044.91 21.251,1035.58C21.251,1011.87 40.541,992.581 64.252,992.581Z" style="fill:rgb(77,77,77);fill-rule:nonzero;"/>
            <path id="path12-95-7" d="M46.773,1017.99C46.787,1018.15 46.8,1018.32 46.816,1018.49C47.931,1031.1 55.311,1040.85 64.25,1040.85C73.306,1040.85 80.762,1030.85 81.727,1017.99C81.86,1017.07 81.93,1016.13 81.93,1015.16C81.93,1014.2 81.86,1013.26 81.727,1012.33C80.431,1003.4 73.1,996.555 64.25,996.555C55.398,996.555 48.066,1003.4 46.773,1012.34C46.64,1013.26 46.572,1014.21 46.572,1015.16C46.572,1015.56 46.586,1015.94 46.609,1016.32C46.641,1016.89 46.694,1017.44 46.773,1017.99ZM53.345,1007.96C53.345,1007.96 65.562,1013.9 73.778,1007.96C73.778,1007.96 78.654,1015.67 77.285,1018.7L79.766,1015.85C79.755,1016.61 79.698,1017.35 79.592,1018.08C78.745,1029.36 72.199,1038.14 64.249,1038.14C56.429,1038.14 49.967,1029.65 48.952,1018.63C49.64,1018.8 50.484,1019.14 51.404,1019.78C51.404,1019.78 49.657,1009.41 53.345,1007.96Z" style="fill:rgb(77,77,77);fill-rule:nonzero;"/>
        </g>
    </g>
</svg>
