<?xml version="1.0" encoding="UTF-8" standalone="no"?>
<!DOCTYPE svg PUBLIC "-//W3C//DTD SVG 1.1//EN" "http://www.w3.org/Graphics/SVG/1.1/DTD/svg11.dtd">
<svg width="100%" height="100%" viewBox="0 0 94 94" version="1.1" xmlns="http://www.w3.org/2000/svg" xmlns:xlink="http://www.w3.org/1999/xlink" xml:space="preserve" xmlns:serif="http://www.serif.com/" style="fill-rule:evenodd;clip-rule:evenodd;stroke-linejoin:round;stroke-miterlimit:2;">
    <g transform="matrix(1,0,0,1,-207.371,-798.339)">
        <g id="john_home" transform="matrix(1,0,0,1,191.518,-67.1759)">
            <path id="path10-4" d="M62.855,865.515C36.938,865.515 15.854,886.599 15.854,912.515C15.854,938.43 36.938,959.513 62.855,959.513C88.77,959.513 109.854,938.43 109.854,912.515C109.854,886.599 88.77,865.515 62.855,865.515ZM62.855,869.515C86.565,869.515 105.854,888.805 105.854,912.515C105.854,921.842 102.859,930.479 97.793,937.533C97.165,926.079 88.22,916.843 76.877,915.805C76.784,920.017 70.543,923.416 62.854,923.416C55.165,923.416 48.923,920.017 48.831,915.805C37.49,916.842 28.543,926.078 27.915,937.533C22.849,930.479 19.854,921.843 19.854,912.515C19.854,888.804 39.144,869.515 62.855,869.515Z" style="fill:white;fill-rule:nonzero;"/>
            <path id="path12-95" d="M45.376,894.923C45.39,895.089 45.403,895.255 45.419,895.421C46.534,908.035 53.914,917.78 62.853,917.78C71.909,917.78 79.365,907.78 80.33,894.928C80.463,894.005 80.533,893.059 80.533,892.097C80.533,891.135 80.463,890.19 80.33,889.267C79.034,880.333 71.703,873.489 62.853,873.489C54.001,873.489 46.669,880.338 45.376,889.274C45.243,890.195 45.175,891.139 45.175,892.098C45.175,892.489 45.189,892.874 45.212,893.258C45.244,893.822 45.297,894.376 45.376,894.923ZM51.948,884.889C51.948,884.889 64.165,890.83 72.381,884.889C72.381,884.889 77.257,892.604 75.888,895.636L78.369,892.785C78.358,893.542 78.301,894.288 78.195,895.016C77.348,906.298 70.802,915.078 62.852,915.078C55.032,915.078 48.57,906.582 47.555,895.562C48.243,895.735 49.087,896.07 50.007,896.711C50.007,896.711 48.26,886.344 51.948,884.889Z" style="fill:white;fill-rule:nonzero;"/>
        </g>
    </g>
</svg>
