<?xml version="1.0" encoding="UTF-8" standalone="no"?>
<!DOCTYPE svg PUBLIC "-//W3C//DTD SVG 1.1//EN" "http://www.w3.org/Graphics/SVG/1.1/DTD/svg11.dtd">
<svg width="100%" height="100%" viewBox="0 0 1280 81" version="1.1" xmlns="http://www.w3.org/2000/svg" xmlns:xlink="http://www.w3.org/1999/xlink" xml:space="preserve" xmlns:serif="http://www.serif.com/" style="fill-rule:evenodd;clip-rule:evenodd;stroke-linejoin:round;stroke-miterlimit:2;">
    <g transform="matrix(1,0,0,1,-1.7415e-05,0.0337972)">
        <g id="TOP" transform="matrix(1,0,0,1,2.26695,-1)">
            <rect x="-2.267" y="0.966" width="1280" height="81" style="fill:rgb(19,19,19);"/>
            <g id="sunrise_sunset" transform="matrix(0.858268,0,0,0.858268,177.442,0.874016)">
                <g id="sunrise" transform="matrix(3.93333,0,0,3.93333,1146,44)">
                    <g transform="matrix(1,0,0,1,-15,-15)">
                        <g transform="matrix(0.433333,0,0,0.433333,9,5.83333)">
                            <path d="M40.538,23L23,23C23,18.582 19.418,15 15,15C10.581,15 7,18.582 7,23L-10.538,23C-11.09,23 -11.538,23.447 -11.538,24C-11.538,24.553 -11.09,25 -10.538,25L40.538,25C41.091,25 41.538,24.553 41.538,24C41.538,23.447 41.091,23 40.538,23ZM9,23C9,19.687 11.686,17 15,17C18.313,17 21,19.687 21,23L9,23ZM15,11C15.553,11 16,10.553 16,10L16,6C16,5.447 15.553,5 15,5C14.448,5 14,5.447 14,6L14,10C14,10.553 14.448,11 15,11ZM25.363,15.888L28.548,13.872C28.988,13.594 29.138,12.976 28.884,12.495C28.63,12.013 28.068,11.848 27.628,12.126L24.443,14.142C24.003,14.42 23.853,15.037 24.107,15.519C24.361,16.001 24.924,16.166 25.363,15.888ZM1.452,13.872L4.637,15.888C5.077,16.166 5.64,16.001 5.893,15.519C6.147,15.037 5.996,14.42 5.557,14.142L2.372,12.126C1.932,11.848 1.37,12.013 1.116,12.495C0.861,12.977 1.012,13.594 1.452,13.872Z" style="fill:white;"/>
                        </g>
                    </g>
                </g>
                <g id="sunrise1" serif:id="sunrise" transform="matrix(-3.93333,-4.81694e-16,4.81694e-16,-3.93333,1150,53)">
                    <g transform="matrix(1,0,0,1,-15,-15)">
                        <g transform="matrix(0.433333,0,0,0.433333,9,5.83333)">
                            <path d="M40.538,23L23,23C23,18.582 19.418,15 15,15C10.581,15 7,18.582 7,23L-10.538,23C-11.09,23 -11.538,23.447 -11.538,24C-11.538,24.553 -11.09,25 -10.538,25L40.538,25C41.091,25 41.538,24.553 41.538,24C41.538,23.447 41.091,23 40.538,23ZM9,23C9,19.687 11.686,17 15,17C18.313,17 21,19.687 21,23L9,23ZM15,11C15.553,11 16,10.553 16,10L16,6C16,5.447 15.553,5 15,5C14.448,5 14,5.447 14,6L14,10C14,10.553 14.448,11 15,11ZM25.363,15.888L28.548,13.872C28.988,13.594 29.138,12.976 28.884,12.495C28.63,12.013 28.068,11.848 27.628,12.126L24.443,14.142C24.003,14.42 23.853,15.037 24.107,15.519C24.361,16.001 24.924,16.166 25.363,15.888ZM1.452,13.872L4.637,15.888C5.077,16.166 5.64,16.001 5.893,15.519C6.147,15.037 5.996,14.42 5.557,14.142L2.372,12.126C1.932,11.848 1.37,12.013 1.116,12.495C0.861,12.977 1.012,13.594 1.452,13.872Z" style="fill:white;"/>
                        </g>
                    </g>
                </g>
            </g>
        </g>
    </g>
</svg>
