<?xml version="1.0" encoding="UTF-8" standalone="no"?>
<!DOCTYPE svg PUBLIC "-//W3C//DTD SVG 1.1//EN" "http://www.w3.org/Graphics/SVG/1.1/DTD/svg11.dtd">
<svg width="100%" height="100%" viewBox="0 0 46 66" version="1.1" xmlns="http://www.w3.org/2000/svg" xmlns:xlink="http://www.w3.org/1999/xlink" xml:space="preserve" xmlns:serif="http://www.serif.com/" style="fill-rule:evenodd;clip-rule:evenodd;stroke-linejoin:round;stroke-miterlimit:2;">
    <g transform="matrix(1,0,0,1,-135.032,-812.481)">
        <g id="light_on" transform="matrix(1,0,0,1,-436.732,247.272)">
            <path id="path4146-1-4-7" d="M586.674,570.821C585.262,571.341 583.548,572.315 581.132,574.976C578.125,578.29 577.102,581.329 576.586,584.345C576.231,586.418 576.486,588.718 576.743,591.158C576.884,592.486 577.552,595.064 579.994,598.312C582.007,600.991 584.772,602.821 587.37,604.626C589.608,606.18 584.329,613.089 587.37,613.081C590.206,613.073 598.13,613.946 602.074,613.081C604.123,612.631 601.326,605 602.074,604.626C604.643,603.342 606.61,601.779 608.15,599.866C611.767,595.373 611.886,594.153 612.637,591.449C613.53,588.228 613.119,584.843 612.187,581.605C611.126,577.924 609.216,575.702 607.025,573.695C602.516,569.566 598.459,569.329 594.722,568.967C592.039,569.257 589.358,569.831 586.674,570.821Z" style="fill:rgb(255,255,0);fill-opacity:0.7;"/>
            <path id="path10-5-5" d="M584.907,627.638C584.907,629.445 586.385,630.923 588.192,630.923L601.335,630.923C603.142,630.923 604.621,629.445 604.621,627.638L604.621,624.352L584.907,624.352L584.907,627.638ZM594.764,565.209C582.081,565.209 571.764,575.526 571.764,588.209C571.764,596.029 575.674,602.896 581.621,607.069L581.621,614.495C581.621,616.302 583.1,617.781 584.907,617.781L604.621,617.781C606.428,617.781 607.907,616.302 607.907,614.495L607.907,607.069C613.854,602.896 617.764,596.029 617.764,588.209C617.764,575.526 607.447,565.209 594.764,565.209ZM604.128,601.681L601.335,603.652L601.335,611.209L588.192,611.209L588.192,603.652L585.4,601.681C580.964,598.592 578.335,593.565 578.335,588.209C578.335,579.141 585.695,571.781 594.764,571.781C603.832,571.781 611.192,579.141 611.192,588.209C611.192,593.565 608.564,598.592 604.128,601.681Z" style="fill:white;fill-rule:nonzero;"/>
        </g>
    </g>
</svg>
