<?xml version="1.0" encoding="UTF-8" standalone="no"?>
<!DOCTYPE svg PUBLIC "-//W3C//DTD SVG 1.1//EN" "http://www.w3.org/Graphics/SVG/1.1/DTD/svg11.dtd">
<svg width="100%" height="100%" viewBox="0 0 46 66" version="1.1" xmlns="http://www.w3.org/2000/svg" xmlns:xlink="http://www.w3.org/1999/xlink" xml:space="preserve" xmlns:serif="http://www.serif.com/" style="fill-rule:evenodd;clip-rule:evenodd;stroke-linejoin:round;stroke-miterlimit:2;">
    <g transform="matrix(1,0,0,1,-78.2572,-812.481)">
        <g id="light_off" transform="matrix(1,0,0,1,-423,-318.164)">
            <path d="M514.4,1193.07C514.4,1194.88 515.879,1196.36 517.686,1196.36L530.829,1196.36C532.636,1196.36 534.114,1194.88 534.114,1193.07L534.114,1189.79L514.4,1189.79L514.4,1193.07ZM524.257,1130.64C511.574,1130.64 501.257,1140.96 501.257,1153.64C501.257,1161.46 505.167,1168.33 511.114,1172.51L511.114,1179.93C511.114,1181.74 512.593,1183.22 514.4,1183.22L534.114,1183.22C535.922,1183.22 537.4,1181.74 537.4,1179.93L537.4,1172.51C543.347,1168.33 547.257,1161.46 547.257,1153.64C547.257,1140.96 536.94,1130.64 524.257,1130.64ZM533.622,1167.12L530.829,1169.09L530.829,1176.64L517.686,1176.64L517.686,1169.09L514.893,1167.12C510.457,1164.03 507.829,1159 507.829,1153.64C507.829,1144.58 515.189,1137.22 524.257,1137.22C533.326,1137.22 540.686,1144.58 540.686,1153.64C540.686,1159 538.057,1164.03 533.622,1167.12Z" style="fill:white;fill-rule:nonzero;"/>
        </g>
    </g>
</svg>
